<?xml version="1.0" encoding="utf-8"?>
<svg version="1.1" xmlns:xlink="http://www.w3.org/1999/xlink" width="31px" height="30px" xmlns="http://www.w3.org/2000/svg">
  <g transform="matrix(1 0 0 1 -1253 -499 )">
    <path d="M 29.9567307692308 10.7561436672968  C 30.6522435897436 10.8695652173913  31 11.1594202898551  31 11.6257088846881  C 31 11.9029615626969  30.8385416666667 12.2054190296156  30.515625 12.5330812854442  L 23.7530048076923 19.2249527410208  L 25.3551682692308 28.6767485822306  C 25.3675881410256 28.7649653434153  25.3737980769231 28.8909892879647  25.3737980769231 29.054820415879  C 25.3737980769231 29.3194706994329  25.30859375 29.5431632010082  25.1781850961538 29.7258979206049  C 25.0477764423077 29.9086326402016  24.8583733974359 30  24.6099759615385 30  C 24.3739983974359 30  24.1256009615385 29.9243856332703  23.8647836538462 29.773156899811  L 15.5 25.3119092627599  L 7.13521634615385 29.773156899811  C 6.86197916666667 29.9243856332703  6.61358173076923 30  6.39002403846154 30  C 6.12920673076923 30  5.93359375 29.9086326402016  5.80318509615385 29.7258979206049  C 5.67277644230769 29.5431632010082  5.60757211538461 29.3194706994329  5.60757211538461 29.054820415879  C 5.60757211538461 28.9792060491493  5.61999198717949 28.8531821045999  5.64483173076923 28.6767485822306  L 7.24699519230769 19.2249527410208  L 0.465745192307692 12.5330812854442  C 0.155248397435897 12.1928166351607  0 11.890359168242  0 11.6257088846881  C 0 11.1594202898551  0.34775641025641 10.8695652173913  1.04326923076923 10.7561436672968  L 10.3954326923077 9.37618147448015  L 14.5871394230769 0.775047258979205  C 14.8231169871795 0.2583490863264  15.1274038461538 0  15.5 0  C 15.8725961538462 0  16.1768830128205 0.2583490863264  16.4128605769231 0.775047258979205  L 20.6045673076923 9.37618147448015  L 29.9567307692308 10.7561436672968  Z " fill-rule="nonzero" fill="#ae9d06" stroke="none" transform="matrix(1 0 0 1 1253 499 )" />
  </g>
</svg>