<?xml version="1.0" encoding="utf-8"?>
<svg version="1.1" xmlns:xlink="http://www.w3.org/1999/xlink" width="76px" height="120px" xmlns="http://www.w3.org/2000/svg">
  <defs>
    <filter x="1383px" y="704px" width="76px" height="120px" filterUnits="userSpaceOnUse" id="filter19">
      <feOffset dx="10" dy="10" in="SourceAlpha" result="shadowOffsetInner" />
      <feGaussianBlur stdDeviation="5" in="shadowOffsetInner" result="shadowGaussian" />
      <feComposite in2="shadowGaussian" operator="atop" in="SourceAlpha" result="shadowComposite" />
      <feColorMatrix type="matrix" values="0 0 0 0 0  0 0 0 0 0  0 0 0 0 0  0 0 0 0.313725490196078 0  " in="shadowComposite" />
    </filter>
    <g id="widget20">
      <path d="M 54.1527777777778 45.60546875  C 55.3842592592593 46.8424479166667  56 48.3072916666667  56 50  C 56 51.6927083333333  55.3842592592593 53.1575520833333  54.1527777777778 54.39453125  L 10.5972222222222 98.14453125  C 9.36574074074074 99.3815104166667  7.90740740740741 100  6.22222222222222 100  C 4.53703703703704 100  3.0787037037037 99.3815104166667  1.84722222222222 98.14453125  C 0.615740740740741 96.9075520833333  0 95.4427083333333  0 93.75  L 0 6.25  C 0 4.55729166666665  0.615740740740741 3.09244791666665  1.84722222222222 1.85546875  C 3.0787037037037 0.618489583333326  4.53703703703704 0  6.22222222222222 0  C 7.90740740740741 0  9.36574074074074 0.618489583333326  10.5972222222222 1.85546875  L 54.1527777777778 45.60546875  Z " fill-rule="nonzero" fill="#ffffff" stroke="none" transform="matrix(1 0 0 1 1383 704 )" />
    </g>
  </defs>
  <g transform="matrix(1 0 0 1 -1383 -704 )">
    <use xlink:href="#widget20" filter="url(#filter19)" />
    <use xlink:href="#widget20" />
  </g>
</svg>