<?xml version="1.0" encoding="utf-8"?>
<svg version="1.1" xmlns:xlink="http://www.w3.org/1999/xlink" width="76px" height="120px" xmlns="http://www.w3.org/2000/svg">
  <defs>
    <filter x="444px" y="699px" width="76px" height="120px" filterUnits="userSpaceOnUse" id="filter21">
      <feOffset dx="10" dy="10" in="SourceAlpha" result="shadowOffsetInner" />
      <feGaussianBlur stdDeviation="5" in="shadowOffsetInner" result="shadowGaussian" />
      <feComposite in2="shadowGaussian" operator="atop" in="SourceAlpha" result="shadowComposite" />
      <feColorMatrix type="matrix" values="0 0 0 0 0  0 0 0 0 0  0 0 0 0 0  0 0 0 0.313725490196078 0  " in="shadowComposite" />
    </filter>
    <g id="widget22">
      <path d="M 54.1527777777778 1.85546875  C 55.3842592592593 3.09244791666665  56 4.55729166666665  56 6.25  L 56 93.75  C 56 95.4427083333333  55.3842592592593 96.9075520833333  54.1527777777778 98.14453125  C 52.9212962962963 99.3815104166667  51.462962962963 100  49.7777777777778 100  C 48.0925925925926 100  46.6342592592593 99.3815104166667  45.4027777777778 98.14453125  L 1.84722222222222 54.39453125  C 0.615740740740742 53.1575520833333  0 51.6927083333333  0 50  C 0 48.3072916666667  0.615740740740742 46.8424479166667  1.84722222222222 45.60546875  L 45.4027777777778 1.85546875  C 46.6342592592593 0.618489583333326  48.0925925925926 0  49.7777777777778 0  C 51.462962962963 0  52.9212962962963 0.618489583333326  54.1527777777778 1.85546875  Z " fill-rule="nonzero" fill="#ffffff" stroke="none" transform="matrix(1 0 0 1 444 699 )" />
    </g>
  </defs>
  <g transform="matrix(1 0 0 1 -444 -699 )">
    <use xlink:href="#widget22" filter="url(#filter21)" />
    <use xlink:href="#widget22" />
  </g>
</svg>