<?xml version="1.0" encoding="utf-8"?>
<svg version="1.1" xmlns:xlink="http://www.w3.org/1999/xlink" width="250px" height="250px" xmlns="http://www.w3.org/2000/svg">
  <defs>
    <filter x="844px" y="158px" width="250px" height="250px" filterUnits="userSpaceOnUse" id="filter25">
      <feOffset dx="10" dy="10" in="SourceAlpha" result="shadowOffsetInner" />
      <feGaussianBlur stdDeviation="5" in="shadowOffsetInner" result="shadowGaussian" />
      <feComposite in2="shadowGaussian" operator="atop" in="SourceAlpha" result="shadowComposite" />
      <feColorMatrix type="matrix" values="0 0 0 0 0  0 0 0 0 0  0 0 0 0 0  0 0 0 0.349019607843137 0  " in="shadowComposite" />
    </filter>
    <g id="widget26">
      <path d="M 959 158  C 1023.4 158  1074 208.6  1074 273  C 1074 337.4  1023.4 388  959 388  C 894.6 388  844 337.4  844 273  C 844 208.6  894.6 158  959 158  Z " fill-rule="nonzero" fill="#ffffff" stroke="none" />
      <path d="M 959 158.5  C 1023.12 158.5  1073.5 208.88  1073.5 273  C 1073.5 337.12  1023.12 387.5  959 387.5  C 894.88 387.5  844.5 337.12  844.5 273  C 844.5 208.88  894.88 158.5  959 158.5  Z " stroke-width="1" stroke="#797979" fill="none" />
    </g>
  </defs>
  <g transform="matrix(1 0 0 1 -844 -158 )">
    <use xlink:href="#widget26" filter="url(#filter25)" />
    <use xlink:href="#widget26" />
  </g>
</svg>