<?xml version="1.0" encoding="utf-8"?>
<svg version="1.1" xmlns:xlink="http://www.w3.org/1999/xlink" width="50px" height="34px" xmlns="http://www.w3.org/2000/svg">
  <g transform="matrix(1 0 0 1 -460 -386 )">
    <path d="M 49.0967741935484 4.69360269360269  C 49.6989247311828 5.22783389450056  50 5.87654320987654  50 6.63973063973064  C 50 7.40291806958473  49.6989247311828 8.05162738496072  49.0967741935484 8.58585858585858  L 25.741935483871 29.3063973063973  L 21.3548387096774 33.1986531986532  C 20.752688172043 33.7328843995511  20.0215053763441 34  19.1612903225806 34  C 18.3010752688172 34  17.5698924731183 33.7328843995511  16.9677419354839 33.1986531986532  L 12.5806451612903 29.3063973063973  L 0.903225806451613 18.9461279461279  C 0.301075268817205 18.4118967452301  0 17.7631874298541  0 17  C 0 16.2368125701459  0.301075268817205 15.5881032547699  0.903225806451613 15.0538720538721  L 5.29032258064516 11.1616161616162  C 5.89247311827957 10.6273849607183  6.6236559139785 10.3602693602694  7.48387096774194 10.3602693602694  C 8.34408602150538 10.3602693602694  9.0752688172043 10.6273849607183  9.67741935483871 11.1616161616162  L 19.1612903225806 19.6043771043771  L 40.3225806451613 0.801346801346801  C 40.9247311827957 0.267115600448933  41.6559139784946 0  42.5161290322581 0  C 43.3763440860215 0  44.1075268817204 0.267115600448933  44.7096774193548 0.801346801346801  L 49.0967741935484 4.69360269360269  Z " fill-rule="nonzero" fill="#a0dba0" stroke="none" transform="matrix(1 0 0 1 460 386 )" />
  </g>
</svg>