<?xml version="1.0" encoding="utf-8"?>
<svg version="1.1" xmlns:xlink="http://www.w3.org/1999/xlink" width="82px" height="81px" xmlns="http://www.w3.org/2000/svg">
  <g transform="matrix(1 0 0 1 -1208 -714 )">
    <path d="M 79.2403846153846 29.0415879017013  C 81.0801282051282 29.3478260869565  82 30.1304347826087  82 31.3894139886578  C 82 32.1379962192817  81.5729166666667 32.9546313799622  80.71875 33.8393194706994  L 62.8305288461538 51.9073724007561  L 67.0685096153846 77.4272211720227  C 67.1013621794872 77.6654064272212  67.1177884615385 78.0056710775047  67.1177884615385 78.4480151228733  C 67.1177884615385 79.1625708884688  66.9453125 79.7665406427221  66.6003605769231 80.2599243856333  C 66.2554086538461 80.7533081285444  65.7544070512821 81  65.0973557692308 81  C 64.4731570512821 81  63.8161057692308 80.7958412098299  63.1262019230769 80.3875236294896  L 41 68.3421550094518  L 18.8737980769231 80.3875236294896  C 18.1510416666667 80.7958412098299  17.4939903846154 81  16.9026442307692 81  C 16.2127403846154 81  15.6953125 80.7533081285444  15.3503605769231 80.2599243856333  C 15.0054086538462 79.7665406427221  14.8329326923077 79.1625708884688  14.8329326923077 78.4480151228733  C 14.8329326923077 78.2438563327032  14.8657852564103 77.9035916824197  14.9314903846154 77.4272211720227  L 19.1694711538462 51.9073724007561  L 1.23197115384615 33.8393194706994  C 0.410657051282051 32.9206049149338  0 32.1039697542533  0 31.3894139886578  C 0 30.1304347826087  0.919871794871795 29.3478260869565  2.75961538461538 29.0415879017013  L 27.4975961538462 25.3156899810964  L 38.5853365384615 2.09262759924385  C 39.2095352564103 0.697542533081281  40.0144230769231 0  41 0  C 41.9855769230769 0  42.7904647435897 0.697542533081281  43.4146634615385 2.09262759924385  L 54.5024038461538 25.3156899810964  L 79.2403846153846 29.0415879017013  Z " fill-rule="nonzero" fill="#d0db62" stroke="none" transform="matrix(1 0 0 1 1208 714 )" />
  </g>
</svg>