<?xml version="1.0" encoding="utf-8"?>
<svg version="1.1" xmlns:xlink="http://www.w3.org/1999/xlink" width="57px" height="48px" xmlns="http://www.w3.org/2000/svg">
  <g transform="matrix(1 0 0 1 -114 -79 )">
    <path d="M 56.294921875 39.1125  C 56.7649739583333 39.5875  57 40.15  57 40.8  L 57 45.6  C 57 46.25  56.7649739583333 46.8125  56.294921875 47.2875  C 55.8248697916667 47.7625  55.2682291666667 48  54.625 48  L 2.375 48  C 1.73177083333333 48  1.17513020833333 47.7625  0.705078125 47.2875  C 0.235026041666667 46.8125  0 46.25  0 45.6  L 0 40.8  C 0 40.15  0.235026041666667 39.5875  0.705078125 39.1125  C 1.17513020833333 38.6375  1.73177083333333 38.4  2.375 38  L 54.625 38  C 55.2682291666667 38.4  55.8248697916667 38.6375  56.294921875 39.1125  Z M 56.294921875 19.9125  C 56.7649739583333 20.3875  57 20.95  57 21.6  L 57 26.4  C 57 27.05  56.7649739583333 27.6125  56.294921875 28.0875  C 55.8248697916667 28.5625  55.2682291666667 28.8  54.625 28  L 2.375 28  C 1.73177083333333 28.8  1.17513020833333 28.5625  0.705078125 28.0875  C 0.235026041666667 27.6125  0 27.05  0 26.4  L 0 21.6  C 0 20.95  0.235026041666667 20.3875  0.705078125 19.9125  C 1.17513020833333 19.4375  1.73177083333333 19.2  2.375 20  L 54.625 20  C 55.2682291666667 19.2  55.8248697916667 19.4375  56.294921875 19.9125  Z M 56.294921875 0.712500000000002  C 56.7649739583333 1.1875  57 1.75  57 2.4  L 57 7.2  C 57 7.85  56.7649739583333 8.4125  56.294921875 8.8875  C 55.8248697916667 9.3625  55.2682291666667 9.6  54.625 10  L 2.375 10  C 1.73177083333333 9.6  1.17513020833333 9.3625  0.705078125 8.8875  C 0.235026041666667 8.4125  0 7.85  0 7.2  L 0 2.4  C 0 1.75  0.235026041666667 1.1875  0.705078125 0.712500000000002  C 1.17513020833333 0.237499999999997  1.73177083333333 0  2.375 0  L 54.625 0  C 55.2682291666667 0  55.8248697916667 0.237499999999997  56.294921875 0.712500000000002  Z " fill-rule="nonzero" fill="#fffafa" stroke="none" transform="matrix(1 0 0 1 114 79 )" />
  </g>
</svg>