<?xml version="1.0" encoding="utf-8"?>
<svg version="1.1" xmlns:xlink="http://www.w3.org/1999/xlink" width="41px" height="40px" xmlns="http://www.w3.org/2000/svg">
  <g transform="matrix(1 0 0 1 -134 -204 )">
    <path d="M 25.14453125 24.53125  C 27.3045873397436 22.4238782051282  28.3846153846154 19.8878205128205  28.3846153846154 16.9230769230769  C 28.3846153846154 13.9583333333333  27.3045873397436 11.4222756410256  25.14453125 9.31490384615385  C 22.9844751602564 7.20753205128205  20.385016025641 6.15384615384615  17.3461538461538 6.15384615384615  C 14.3072916666667 6.15384615384615  11.7078325320513 7.20753205128205  9.54777644230769 9.31490384615385  C 7.3877203525641 11.4222756410256  6.30769230769231 13.9583333333333  6.30769230769231 16.9230769230769  C 6.30769230769231 19.8878205128205  7.3877203525641 22.4238782051282  9.54777644230769 24.53125  C 11.7078325320513 26.6386217948718  14.3072916666667 27.6923076923077  17.3461538461538 27.6923076923077  C 20.385016025641 27.6923076923077  22.9844751602564 26.6386217948718  25.14453125 24.53125  Z M 40.0883413461538 34.7596153846154  C 40.6961137820513 35.3525641025641  41 36.0737179487179  41 36.9230769230769  C 41 37.7564102564103  40.6879006410256 38.4775641025641  40.0637019230769 39.0865384615385  C 39.4395032051282 39.6955128205128  38.7003205128205 40  37.8461538461538 40  C 36.9591346153846 40  36.2199519230769 39.6955128205128  35.6286057692308 39.0865384615385  L 27.1772836538462 30.8653846153846  C 24.2369791666667 32.8525641025641  20.9599358974359 33.8461538461538  17.3461538461538 33.8461538461538  C 14.9971955128205 33.8461538461538  12.7509014423077 33.4014423076923  10.6072716346154 32.5120192307692  C 8.46364182692308 31.6225961538462  6.61568509615385 30.4206730769231  5.06340144230769 28.90625  C 3.51111778846154 27.3918269230769  2.27914663461539 25.5889423076923  1.36748798076923 23.4975961538462  C 0.455829326923077 21.40625  0 19.2147435897436  0 16.9230769230769  C 0 14.6314102564103  0.455829326923077 12.4399038461538  1.36748798076923 10.3485576923077  C 2.27914663461539 8.25721153846154  3.51111778846154 6.45432692307693  5.06340144230769 4.93990384615385  C 6.61568509615385 3.42548076923077  8.46364182692308 2.22355769230769  10.6072716346154 1.33413461538462  C 12.7509014423077 0.444711538461537  14.9971955128205 0  17.3461538461538 0  C 19.6951121794872 0  21.94140625 0.444711538461537  24.0850360576923 1.33413461538462  C 26.2286658653846 2.22355769230769  28.0766225961538 3.42548076923077  29.62890625 4.93990384615385  C 31.1811899038462 6.45432692307693  32.4131610576923 8.25721153846154  33.3248197115385 10.3485576923077  C 34.2364783653846 12.4399038461538  34.6923076923077 14.6314102564103  34.6923076923077 16.9230769230769  C 34.6923076923077 20.4487179487179  33.6738782051282 23.6458333333333  31.6370192307692 26.5144230769231  L 40.0883413461538 34.7596153846154  Z " fill-rule="nonzero" fill="#ffffff" stroke="none" transform="matrix(1 0 0 1 134 204 )" />
  </g>
</svg>