<?xml version="1.0" encoding="utf-8"?>
<svg version="1.1" xmlns:xlink="http://www.w3.org/1999/xlink" width="58px" height="58px" xmlns="http://www.w3.org/2000/svg">
  <g transform="matrix(1 0 0 1 -1688 -73 )">
    <path d="M 56.6329966329966 43.3535353535353  C 57.5443322109989 44.2648709315376  58 45.371492704826  58 46.6734006734007  C 58 47.9753086419753  57.5443322109989 49.0819304152637  56.6329966329966 49.993265993266  L 49.993265993266 56.6329966329966  C 49.0819304152638 57.5443322109989  47.9753086419753 58  46.6734006734007 58  C 45.371492704826 58  44.2648709315376 57.5443322109989  43.3535353535354 56.6329966329966  L 29 42.2794612794613  L 14.6464646464646 56.6329966329966  C 13.7351290684624 57.5443322109989  12.628507295174 58  11.3265993265993 58  C 10.0246913580247 58  8.91806958473625 57.5443322109989  8.00673400673401 56.6329966329966  L 1.36700336700337 49.993265993266  C 0.455667789001123 49.0819304152637  0 47.9753086419753  0 46.6734006734007  C 0 45.371492704826  0.455667789001123 44.2648709315376  1.36700336700337 43.3535353535353  L 15.7205387205387 29  L 1.36700336700337 14.6464646464646  C 0.455667789001123 13.7351290684624  0 12.628507295174  0 11.3265993265993  C 0 10.0246913580247  0.455667789001123 8.91806958473624  1.36700336700337 8.00673400673401  L 8.00673400673401 1.36700336700337  C 8.91806958473625 0.45566778900112  10.0246913580247 0  11.3265993265993 0  C 12.628507295174 0  13.7351290684624 0.45566778900112  14.6464646464646 1.36700336700337  L 29 15.7205387205387  L 43.3535353535354 1.36700336700337  C 44.2648709315376 0.45566778900112  45.371492704826 0  46.6734006734007 0  C 47.9753086419753 0  49.0819304152638 0.45566778900112  49.993265993266 1.36700336700337  L 56.6329966329966 8.00673400673401  C 57.5443322109989 8.91806958473624  58 10.0246913580247  58 11.3265993265993  C 58 12.628507295174  57.5443322109989 13.7351290684624  56.6329966329966 14.6464646464646  L 42.2794612794613 29  L 56.6329966329966 43.3535353535353  Z " fill-rule="nonzero" fill="#ffffff" stroke="none" transform="matrix(1 0 0 1 1688 73 )" />
  </g>
</svg>