<?xml version="1.0" encoding="utf-8"?>
<svg version="1.1" xmlns:xlink="http://www.w3.org/1999/xlink" width="39px" height="70px" xmlns="http://www.w3.org/2000/svg">
  <g transform="matrix(1 0 0 1 -1740 -603 )">
    <path d="M 37.7135416666667 31.923828125  C 38.5711805555556 32.7897135416667  39 33.8151041666667  39 35  C 39 36.1848958333333  38.5711805555556 37.2102864583333  37.7135416666667 38.076171875  L 7.38020833333333 68.701171875  C 6.52256944444444 69.5670572916667  5.50694444444444 70  4.33333333333333 70  C 3.15972222222222 70  2.14409722222222 69.5670572916667  1.28645833333333 68.701171875  C 0.428819444444444 67.8352864583333  0 66.8098958333333  0 65.625  L 0 4.375  C 0 3.19010416666666  0.428819444444444 2.16471354166666  1.28645833333333 1.298828125  C 2.14409722222222 0.432942708333328  3.15972222222222 0  4.33333333333333 0  C 5.50694444444444 0  6.52256944444444 0.432942708333328  7.38020833333333 1.298828125  L 37.7135416666667 31.923828125  Z " fill-rule="nonzero" fill="#ffffff" stroke="none" transform="matrix(1 0 0 1 1740 603 )" />
  </g>
</svg>