<?xml version="1.0" encoding="utf-8"?>
<svg version="1.1" xmlns:xlink="http://www.w3.org/1999/xlink" width="39px" height="70px" xmlns="http://www.w3.org/2000/svg">
  <g transform="matrix(1 0 0 1 -127 -603 )">
    <path d="M 37.7135416666667 1.298828125  C 38.5711805555556 2.16471354166666  39 3.19010416666666  39 4.375  L 39 65.625  C 39 66.8098958333333  38.5711805555556 67.8352864583333  37.7135416666667 68.701171875  C 36.8559027777778 69.5670572916667  35.8402777777778 70  34.6666666666667 70  C 33.4930555555556 70  32.4774305555556 69.5670572916667  31.6197916666667 68.701171875  L 1.28645833333333 38.076171875  C 0.428819444444445 37.2102864583333  0 36.1848958333333  0 35  C 0 33.8151041666667  0.428819444444445 32.7897135416667  1.28645833333333 31.923828125  L 31.6197916666667 1.298828125  C 32.4774305555556 0.432942708333328  33.4930555555556 0  34.6666666666667 0  C 35.8402777777778 0  36.8559027777778 0.432942708333328  37.7135416666667 1.298828125  Z " fill-rule="nonzero" fill="#ffffff" stroke="none" transform="matrix(1 0 0 1 127 603 )" />
  </g>
</svg>