<?xml version="1.0" encoding="utf-8"?>
<svg version="1.1" xmlns:xlink="http://www.w3.org/1999/xlink" width="32px" height="35px" xmlns="http://www.w3.org/2000/svg">
  <g transform="matrix(1 0 0 1 -62 -73 )">
    <path d="M 31.2934782608696 14.0292041078306  C 31.7644927536232 14.5908215661104  32 15.2685066324347  32 16.0622593068036  L 32 18.9377406931964  C 32 19.7314933675653  31.7644927536232 20.4091784338896  31.2934782608696 20.9707958921694  C 30.8224637681159 21.5324133504493  30.2101449275362 21.8132220795892  29.4565217391304 21.8132220795892  L 14.1521739130435 21.8132220795892  L 20.5217391304348 28.4178433889602  C 21.0724637681159 28.9569961489089  21.3478260869565 29.6309370988447  21.3478260869565 30.4396662387676  C 21.3478260869565 31.2483953786906  21.0724637681159 31.9223363286264  20.5217391304348 32.4614890885751  L 18.8913043478261 34.1688061617458  C 18.3550724637681 34.7229353872486  17.7028985507246 35  16.9347826086957 35  C 16.1811594202899 35  15.5217391304348 34.7229353872486  14.9565217391304 34.1688061617458  L 0.804347826086957 19.5218228498074  C 0.268115942028986 18.9676936243047  0 18.2937526743688  0 17.5  C 0 16.7212237911853  0.268115942028986 16.0397946084724  0.804347826086957 15.4557124518614  L 14.9565217391304 0.853658536585367  C 15.5072463768116 0.284552845528453  16.1666666666667 0  16.9347826086957 0  C 17.6884057971014 0  18.3405797101449 0.284552845528453  18.8913043478261 0.853658536585367  L 20.5217391304348 2.51604621309371  C 21.0724637681159 3.08515190415062  21.3478260869565 3.7665810868635  21.3478260869565 4.56033376123235  C 21.3478260869565 5.35408643560119  21.0724637681159 6.03551561831407  20.5217391304348 6.60462130937099  L 14.1521739130435 13.1867779204108  L 29.4565217391304 13.1867779204108  C 30.2101449275362 13.1867779204108  30.8224637681159 13.4675866495507  31.2934782608696 14.0292041078306  Z " fill-rule="nonzero" fill="#ffffff" stroke="none" transform="matrix(1 0 0 1 62 73 )" />
  </g>
</svg>