<?xml version="1.0" encoding="utf-8"?>
<svg version="1.1" xmlns:xlink="http://www.w3.org/1999/xlink" width="66px" height="40px" xmlns="http://www.w3.org/2000/svg">
  <g transform="matrix(1 0 0 1 -1467 -546 )">
    <path d="M 49.0027901785714 31.3368055555556  C 53.92578125 28.5243055555556  58.0200892857143 24.7453703703704  61.2857142857143 20  C 57.5535714285714 14.537037037037  52.8761160714286 10.4513888888889  47.2533482142857 7.74305555555555  C 48.7511160714286 10.150462962963  49.5 12.7546296296296  49.5 15.5555555555556  C 49.5 19.837962962963  47.8856026785714 23.5011574074074  44.6568080357143 26.5451388888889  C 41.4280133928571 29.5891203703704  37.5424107142857 31.1111111111111  33 31.1111111111111  C 28.4575892857143 31.1111111111111  24.5719866071429 29.5891203703704  21.3431919642857 26.5451388888889  C 18.1143973214286 23.5011574074074  16.5 19.837962962963  16.5 15.5555555555556  C 16.5 12.7546296296296  17.2488839285714 10.150462962963  18.7466517857143 7.74305555555555  C 13.1238839285714 10.4513888888889  8.44642857142857 14.537037037037  4.71428571428571 20  C 7.97991071428572 24.7453703703704  12.07421875 28.5243055555556  16.9972098214286 31.3368055555556  C 21.9202008928571 34.1493055555556  27.2544642857143 35.5555555555556  33 35.5555555555556  C 38.7455357142857 35.5555555555556  44.0797991071429 34.1493055555556  49.0027901785714 31.3368055555556  Z M 34.2522321428571 7.84722222222222  C 34.5959821428571 7.52314814814815  34.7678571428571 7.12962962962963  34.7678571428571 6.66666666666667  C 34.7678571428571 6.2037037037037  34.5959821428571 5.81018518518518  34.2522321428571 5.48611111111111  C 33.9084821428571 5.16203703703703  33.4910714285714 5  33 5  C 29.9308035714286 5  27.2974330357143 6.03587962962963  25.0998883928571 8.10763888888889  C 22.90234375 10.1793981481481  21.8035714285714 12.662037037037  21.8035714285714 15.5555555555556  C 21.8035714285714 16.0185185185185  21.9754464285714 16.412037037037  22.3191964285714 16.7361111111111  C 22.6629464285714 17.0601851851852  23.0803571428571 17.2222222222222  23.5714285714286 17.2222222222222  C 24.0625 17.2222222222222  24.4799107142857 17.0601851851852  24.8236607142857 16.7361111111111  C 25.1674107142857 16.412037037037  25.3392857142857 16.0185185185185  25.3392857142857 15.5555555555556  C 25.3392857142857 13.5648148148148  26.0881696428571 11.8634259259259  27.5859375 10.4513888888889  C 29.0837053571429 9.03935185185185  30.8883928571429 8.33333333333333  33 8.33333333333334  C 33.4910714285714 8.33333333333333  33.9084821428571 8.17129629629629  34.2522321428571 7.84722222222222  Z M 65.2633928571429 17.6041666666667  C 65.7544642857143 18.4143518518519  66 19.212962962963  66 20  C 66 20.787037037037  65.7544642857143 21.5856481481481  65.2633928571429 22.3958333333333  C 61.8258928571429 27.7199074074074  57.2036830357143 31.9849537037037  51.3967633928571 35.1909722222222  C 45.58984375 38.3969907407407  39.4575892857143 40  33 40  C 26.5424107142857 40  20.41015625 38.3912037037037  14.6032366071429 35.1736111111111  C 8.79631696428572 31.9560185185185  4.17410714285714 27.6967592592593  0.736607142857143 22.3958333333333  C 0.245535714285714 21.5856481481481  0 20.787037037037  0 20  C 0 19.212962962963  0.245535714285714 18.4143518518519  0.736607142857143 17.6041666666667  C 4.17410714285714 12.3032407407407  8.79631696428572 8.04398148148148  14.6032366071429 4.82638888888889  C 20.41015625 1.60879629629629  26.5424107142857 0  33 0  C 39.4575892857143 0  45.58984375 1.60879629629629  51.3967633928571 4.82638888888889  C 57.2036830357143 8.04398148148148  61.8258928571429 12.3032407407407  65.2633928571429 17.6041666666667  Z " fill-rule="nonzero" fill="#5d5d5d" stroke="none" transform="matrix(1 0 0 1 1467 546 )" />
  </g>
</svg>