<?xml version="1.0" encoding="utf-8"?>
<svg version="1.1" xmlns:xlink="http://www.w3.org/1999/xlink" width="172px" height="171px" xmlns="http://www.w3.org/2000/svg">
  <defs>
    <filter x="178px" y="361px" width="172px" height="171px" filterUnits="userSpaceOnUse" id="filter33">
      <feOffset dx="10" dy="10" in="SourceAlpha" result="shadowOffsetInner" />
      <feGaussianBlur stdDeviation="5" in="shadowOffsetInner" result="shadowGaussian" />
      <feComposite in2="shadowGaussian" operator="atop" in="SourceAlpha" result="shadowComposite" />
      <feColorMatrix type="matrix" values="0 0 0 0 0  0 0 0 0 0  0 0 0 0 0  0 0 0 0.349019607843137 0  " in="shadowComposite" />
    </filter>
    <g id="widget34">
      <path d="M 254 361  C 296.56 361  330 394.22  330 436.5  C 330 478.78  296.56 512  254 512  C 211.44 512  178 478.78  178 436.5  C 178 394.22  211.44 361  254 361  Z " fill-rule="nonzero" fill="#ffffff" stroke="none" />
      <path d="M 254 361.5  C 296.28 361.5  329.5 394.5  329.5 436.5  C 329.5 478.5  296.28 511.5  254 511.5  C 211.72 511.5  178.5 478.5  178.5 436.5  C 178.5 394.5  211.72 361.5  254 361.5  Z " stroke-width="1" stroke="#797979" fill="none" />
    </g>
  </defs>
  <g transform="matrix(1 0 0 1 -178 -361 )">
    <use xlink:href="#widget34" filter="url(#filter33)" />
    <use xlink:href="#widget34" />
  </g>
</svg>