<?xml version="1.0" encoding="utf-8"?>
<svg version="1.1" xmlns:xlink="http://www.w3.org/1999/xlink" width="42px" height="30px" xmlns="http://www.w3.org/2000/svg">
  <g transform="matrix(1 0 0 1 -1229 -754 )">
    <path d="M 41.2412903225806 4.14141414141414  C 41.7470967741936 4.61279461279461  42 5.18518518518519  42 5.85858585858586  C 42 6.53198653198653  41.7470967741936 7.1043771043771  41.2412903225806 7.57575757575757  L 21.6232258064516 25.8585858585859  L 17.938064516129 29.2929292929293  C 17.4322580645161 29.7643097643098  16.818064516129 30  16.0954838709677 30  C 15.3729032258065 30  14.7587096774194 29.7643097643098  14.2529032258065 29.2929292929293  L 10.5677419354839 25.8585858585859  L 0.758709677419355 16.7171717171717  C 0.252903225806452 16.2457912457912  0 15.6734006734007  0 15  C 0 14.3265993265993  0.252903225806452 13.7542087542088  0.758709677419355 13.2828282828283  L 4.44387096774194 9.84848484848485  C 4.94967741935484 9.37710437710438  5.56387096774194 9.14141414141414  6.28645161290323 9.14141414141414  C 7.00903225806452 9.14141414141414  7.62322580645161 9.37710437710438  8.12903225806452 9.84848484848485  L 16.0954838709677 17.2979797979798  L 33.8709677419355 0.707070707070707  C 34.3767741935484 0.235690235690235  34.9909677419355 0  35.7135483870968 0  C 36.4361290322581 0  37.0503225806452 0.235690235690235  37.5561290322581 0.707070707070707  L 41.2412903225806 4.14141414141414  Z " fill-rule="nonzero" fill="#000000" stroke="none" transform="matrix(1 0 0 1 1229 754 )" />
  </g>
</svg>