<?xml version="1.0" encoding="utf-8"?>
<svg version="1.1" xmlns:xlink="http://www.w3.org/1999/xlink" width="50px" height="28px" xmlns="http://www.w3.org/2000/svg">
  <g transform="matrix(1 0 0 1 -935 -487 )">
    <path d="M 49.072265625 0.923611111111112  C 49.6907552083333 1.53935185185185  50 2.26851851851851  50 3.11111111111111  C 50 3.9537037037037  49.6907552083333 4.68287037037037  49.072265625 5.29861111111111  L 27.197265625 27.0763888888889  C 26.5787760416667 27.6921296296296  25.8463541666667 28  25 28  C 24.1536458333333 28  23.4212239583333 27.6921296296296  22.802734375 27.0763888888889  L 0.927734375 5.29861111111111  C 0.309244791666667 4.68287037037037  0 3.9537037037037  0 3.11111111111111  C 0 2.26851851851851  0.309244791666667 1.53935185185185  0.927734375 0.923611111111112  C 1.54622395833333 0.307870370370367  2.27864583333333 0  3.125 0  L 46.875 0  C 47.7213541666667 0  48.4537760416667 0.307870370370367  49.072265625 0.923611111111112  Z " fill-rule="nonzero" fill="#fefefe" stroke="none" transform="matrix(1 0 0 1 935 487 )" />
  </g>
</svg>