<?xml version="1.0" encoding="utf-8"?>
<svg version="1.1" xmlns:xlink="http://www.w3.org/1999/xlink" width="127px" height="128px" xmlns="http://www.w3.org/2000/svg">
  <g transform="matrix(1 0 0 1 -63 -906 )">
    <path d="M 126.5 906  C 162.06 906  190 934.16  190 970  C 190 1005.84  162.06 1034  126.5 1034  C 90.94 1034  63 1005.84  63 970  C 63 934.16  90.94 906  126.5 906  Z " fill-rule="nonzero" fill="#819165" stroke="none" />
    <path d="M 126.5 906.5  C 161.78 906.5  189.5 934.44  189.5 970  C 189.5 1005.56  161.78 1033.5  126.5 1033.5  C 91.22 1033.5  63.5 1005.56  63.5 970  C 63.5 934.44  91.22 906.5  126.5 906.5  Z " stroke-width="1" stroke="#797979" fill="none" />
  </g>
</svg>