<?xml version="1.0" encoding="utf-8"?>
<svg version="1.1" xmlns:xlink="http://www.w3.org/1999/xlink" width="48px" height="60px" xmlns="http://www.w3.org/2000/svg">
  <g transform="matrix(1 0 0 1 -1801 -55 )">
    <path d="M 48 11.8997524752475  C 48 12.8774752475247  47.6111111111111 13.7128712871287  46.8333333333333 14.4059405940594  L 34 25.2475247524753  L 34 55.8415841584158  C 34.6666666666667 56.980198019802  34.2083333333333 57.9579207920792  33.2916666666667 58.7747524752475  C 32.375 59.5915841584158  31.2777777777778 60  30 60  C 28.7222222222222 60  27.625 59.5915841584158  26.7083333333333 58.7747524752475  C 25.7916666666667 57.9579207920792  25.3333333333333 56.980198019802  25 55.8415841584158  L 25 41.5841584158416  L 23 41.5841584158416  L 23 55.8415841584158  C 22.6666666666667 56.980198019802  22.2083333333333 57.9579207920792  21.2916666666667 58.7747524752475  C 20.375 59.5915841584158  19.2777777777778 60  18 60  C 16.7222222222222 60  15.625 59.5915841584158  14.7083333333333 58.7747524752475  C 13.7916666666667 57.9579207920792  13.3333333333333 56.980198019802  14 55.8415841584158  L 14 25.2475247524753  L 1.16666666666667 14.4059405940594  C 0.388888888888889 13.7128712871287  0 12.8712871287129  0 11.8811881188119  C 0 10.8910891089109  0.388888888888889 10.049504950495  1.16666666666667 9.35643564356436  C 1.97222222222222 8.66336633663366  2.92361111111111 8.31683168316832  4.02083333333333 8.31683168316832  C 5.11805555555556 8.31683168316832  6.05555555555556 8.66336633663366  6.83333333333333 9.35643564356436  L 16.3333333333333 18  L 31.6666666666667 18  L 41.1666666666667 9.35643564356436  C 41.9444444444444 8.66336633663366  42.8888888888889 8.31683168316832  44 8.31683168316832  C 45.1111111111111 8.31683168316832  46.0555555555556 8.66336633663366  46.8333333333333 9.35643564356436  C 47.6111111111111 10.0742574257426  48 10.9220297029703  48 11.8997524752475  Z M 30.6041666666667 2.4319306930693  C 32.4236111111111 4.05321782178217  33.3333333333333 6.01485148514851  33.3333333333333 8.31683168316832  C 33.3333333333333 10.6188118811881  32.4236111111111 12.5804455445545  30.6041666666667 14.2017326732673  C 28.7847222222222 15.8230198019802  26.5833333333333 16.6336633663366  24 16.6336633663366  C 21.4166666666667 16.6336633663366  19.2152777777778 15.8230198019802  17.3958333333333 14.2017326732673  C 15.5763888888889 12.5804455445545  14.6666666666667 10.6188118811881  14.6666666666667 8.31683168316832  C 14.6666666666667 6.01485148514851  15.5763888888889 4.05321782178217  17.3958333333333 2.4319306930693  C 19.2152777777778 0.81064356435643  21.4166666666667 0  24 0  C 26.5833333333333 0  28.7847222222222 0.81064356435643  30.6041666666667 2.4319306930693  Z " fill-rule="nonzero" fill="#fffafa" stroke="none" transform="matrix(1 0 0 1 1801 55 )" />
  </g>
</svg>