<?xml version="1.0" encoding="utf-8"?>
<svg version="1.1" xmlns:xlink="http://www.w3.org/1999/xlink" width="37px" height="36px" xmlns="http://www.w3.org/2000/svg">
  <g transform="matrix(1 0 0 1 -1349 -67 )">
    <path d="M 22.69140625 22.078125  C 24.6407251602564 20.1814903846154  25.6153846153846 17.8990384615385  25.6153846153846 15.2307692307692  C 25.6153846153846 12.5625  24.6407251602564 10.2800480769231  22.69140625 8.38341346153846  C 20.7420873397436 6.48677884615384  18.396233974359 5.53846153846154  15.6538461538462 5.53846153846154  C 12.9114583333333 5.53846153846154  10.5656049679487 6.48677884615384  8.61628605769231 8.38341346153846  C 6.6669671474359 10.2800480769231  5.69230769230769 12.5625  5.69230769230769 15.2307692307692  C 5.69230769230769 17.8990384615385  6.6669671474359 20.1814903846154  8.61628605769231 22.078125  C 10.5656049679487 23.9747596153846  12.9114583333333 24.9230769230769  15.6538461538462 24.9230769230769  C 18.396233974359 24.9230769230769  20.7420873397436 23.9747596153846  22.69140625 22.078125  Z M 36.1772836538462 31.2836538461538  C 36.7257612179487 31.8173076923077  37 32.4663461538462  37 33.2307692307692  C 37 33.9807692307692  36.7183493589744 34.6298076923077  36.1550480769231 35.1778846153846  C 35.5917467948718 35.7259615384615  34.9246794871795 36  34.1538461538462 36  C 33.3533653846154 36  32.6862980769231 35.7259615384615  32.1526442307692 35.1778846153846  L 24.5258413461538 27.7788461538462  C 21.8723958333333 29.5673076923077  18.9150641025641 30.4615384615385  15.6538461538462 30.4615384615385  C 13.5340544871795 30.4615384615385  11.5069110576923 30.0612980769231  9.57241586538461 29.2608173076923  C 7.63792067307692 28.4603365384615  5.97025240384615 27.3786057692308  4.56941105769231 26.015625  C 3.16856971153846 24.6526442307692  2.05679086538462 23.0300480769231  1.23407451923077 21.1478365384615  C 0.411358173076923 19.265625  0 17.2932692307692  0 15.2307692307692  C 0 13.1682692307692  0.411358173076923 11.1959134615385  1.23407451923077 9.31370192307692  C 2.05679086538462 7.43149038461538  3.16856971153846 5.80889423076923  4.56941105769231 4.44591346153846  C 5.97025240384615 3.08293269230769  7.63792067307692 2.00120192307692  9.57241586538461 1.20072115384616  C 11.5069110576923 0.400240384615384  13.5340544871795 0  15.6538461538462 0  C 17.7736378205128 0  19.80078125 0.400240384615384  21.7352764423077 1.20072115384616  C 23.6697716346154 2.00120192307692  25.3374399038462 3.08293269230769  26.73828125 4.44591346153846  C 28.1391225961538 5.80889423076923  29.2509014423077 7.43149038461538  30.0736177884615 9.31370192307692  C 30.8963341346154 11.1959134615385  31.3076923076923 13.1682692307692  31.3076923076923 15.2307692307692  C 31.3076923076923 18.4038461538462  30.3886217948718 21.28125  28.5504807692308 23.8629807692308  L 36.1772836538462 31.2836538461538  Z " fill-rule="nonzero" fill="#fffafa" stroke="none" transform="matrix(1 0 0 1 1349 67 )" />
  </g>
</svg>